# xmcd
#
# Track frame offsets:
#	150
#	8030
#	16382
#	28662
#	38748
#	47153
#	58114
#	68603
#	77102
#	87158
#	97057
#	106713
#	115805
#	126841
#	136002
#	146585
#	157376
#	168349
#	178562
#	187360
#	198582
#	210490
#	221634
#	230460
#	241353
#	249617
#
# Disc length: 3445 seconds
#
# Revision: 0
# Processed by: cddbd v1.4PL0 Copyright (c) Steve Scherf et al.
# Submitted via: EasyCDDAExtractor 4.6.0.1
#
DISCID=710d731a
DTITLE=Various Artist - Explosive Doo-Wops  Vol 05
DYEAR=1900
DGENRE=blues
TTITLE0=Spirals - Please Be Mine
TTITLE1=Tokays - Fatty-Boom-Bi-Laddy
TTITLE2=Stratfords - Promise Her Anything
TTITLE3=Caslons - Settle Me Down
TTITLE4=Defenders - I Laughed So Hard
TTITLE5=Blue Sonnets - Thank You Mr. Moon
TTITLE6=Techniques - Marindy
TTITLE7=Dedications - Shining Star
TTITLE8=Kenny Loran and group - Magic Star
TTITLE9=Crescents - When You Wish Upon A Star
TTITLE10=Del-Larks - Lady Love
TTITLE11=Boulevards - Chop Chop Hole In The Wall
TTITLE12=Van Dykes - Run Betty, Run
TTITLE13=Squires - Dangling With My Heart
TTITLE14=Teardrops - My Inspiration
TTITLE15=Inspirations - Goodbye
TTITLE16=Five Kings - Light Bulb
TTITLE17=Raindrops - I Remember(In The Still Of The Night)
TTITLE18=Wonders - I'll Write A Book
TTITLE19=Masters (Rick and the) - Here Comes Nancy
TTITLE20=Dreamers (Donnie and the) - Carole
TTITLE21=Paramounts - When You Dance
TTITLE22=Sedates - I Found
TTITLE23=Hollywood Flames - Gee
TTITLE24=Six Teens - Send Me Flowers
TTITLE25=Raytones (Laverne Ray and the) - I've Got That Feeling
EXTD=
EXTT0=
EXTT1=
EXTT2=
EXTT3=
EXTT4=
EXTT5=
EXTT6=
EXTT7=
EXTT8=
EXTT9=
EXTT10=
EXTT11=
EXTT12=
EXTT13=
EXTT14=
EXTT15=
EXTT16=
EXTT17=
EXTT18=
EXTT19=
EXTT20=
EXTT21=
EXTT22=
EXTT23=
EXTT24=
EXTT25=
PLAYORDER=
